<?xml version="1.0" standalone="no"?>
<!DOCTYPE svg PUBLIC "-//W3C//DTD SVG 20010904//EN"
 "http://www.w3.org/TR/2001/REC-SVG-20010904/DTD/svg10.dtd">
<svg version="1.0" xmlns="http://www.w3.org/2000/svg"
 width="200.000000pt" height="200.000000pt" viewBox="0 0 200.000000 200.000000"
 preserveAspectRatio="xMidYMid meet">

<g transform="translate(0.000000,200.000000) scale(0.100000,-0.100000)"
fill="#000000" stroke="none">
<path d="M800 1910 c-288 -59 -546 -268 -664 -537 -56 -130 -70 -204 -70 -378
0 -145 3 -168 27 -248 158 -515 676 -789 1184 -626 102 33 122 47 33 24 -70
-18 -196 -34 -241 -30 -19 2 -65 6 -102 9 -276 26 -555 224 -689 491 -57 113
-80 210 -86 360 -6 201 26 337 116 490 47 80 62 99 135 174 164 167 360 255
602 269 94 5 104 7 65 14 -74 12 -220 6 -310 -12z"/>
<path d="M995 1819 c-86 -13 -159 -36 -238 -75 -63 -32 -71 -40 -95 -92 -24
-51 -27 -68 -27 -173 l0 -116 42 -84 c41 -80 88 -149 96 -139 2 3 52 133 111
290 139 364 140 367 166 375 12 4 24 4 27 2 4 -5 63 -286 173 -824 l33 -163
56 -16 c114 -33 201 -45 366 -51 195 -8 178 -19 -45 -29 -95 -4 -168 -1 -245
9 -60 9 -111 14 -113 13 -4 -4 96 -485 103 -496 8 -13 100 29 172 78 264 182
403 502 349 809 -32 182 -102 320 -230 449 -186 186 -439 271 -701 233z"/>
<path d="M432 1458 c-98 -151 -138 -300 -129 -492 5 -132 26 -214 79 -321 41
-81 118 -189 129 -178 4 4 54 128 110 275 l102 268 -44 43 c-130 127 -186 236
-198 387 l-6 84 -43 -66z"/>
<path d="M958 1435 c-8 -22 -41 -111 -73 -198 -56 -151 -57 -158 -40 -177 23
-25 149 -112 202 -139 l43 -21 -7 32 c-4 18 -30 148 -58 288 l-51 255 -16 -40z"/>
<path d="M770 928 c-6 -18 -49 -141 -95 -273 -46 -132 -86 -247 -90 -256 -13
-33 193 -151 325 -186 91 -23 288 -25 303 -1 8 12 -3 87 -43 295 -29 153 -58
283 -64 289 -6 6 -42 23 -81 39 -38 16 -108 51 -154 77 -46 26 -85 48 -86 48
-2 0 -8 -15 -15 -32z"/>
</g>
</svg>
