<?xml version="1.0" standalone="no"?>
<!DOCTYPE svg PUBLIC "-//W3C//DTD SVG 20010904//EN"
 "http://www.w3.org/TR/2001/REC-SVG-20010904/DTD/svg10.dtd">
<svg version="1.0" xmlns="http://www.w3.org/2000/svg"
 width="200.000000pt" height="200.000000pt" viewBox="0 0 200.000000 200.000000"
 preserveAspectRatio="xMidYMid meet">

<g transform="translate(0.000000,200.000000) scale(0.100000,-0.100000)"
fill="#000000" stroke="none">
<path d="M1158 1358 c-3 -500 -2 -486 -68 -542 -110 -92 -279 -13 -280 132 0
31 -4 42 -12 39 -24 -8 -12 -95 19 -145 82 -132 278 -119 344 23 17 37 19 74
19 493 0 280 -4 452 -10 452 -5 0 -10 -175 -12 -452z"/>
<path d="M1098 1341 l-3 -440 -29 -30 c-77 -80 -196 -31 -196 80 0 37 -4 49
-15 49 -19 0 -20 -59 -1 -103 22 -52 59 -79 114 -85 59 -5 105 15 132 61 19
30 20 53 20 470 0 275 -4 437 -10 437 -6 0 -10 -164 -12 -439z"/>
<path d="M1280 1325 c-5 -433 -5 -441 -28 -490 -71 -154 -250 -223 -396 -151
-101 50 -157 137 -164 259 -2 42 -9 77 -15 77 -6 0 -8 -27 -4 -76 7 -96 41
-168 107 -227 156 -141 415 -79 489 117 21 56 21 68 19 494 l-3 437 -5 -440z"/>
<path d="M1210 1308 l0 -423 -30 -52 c-42 -73 -94 -106 -177 -111 -84 -6 -141
16 -191 73 -46 52 -62 100 -62 184 0 34 -4 61 -10 61 -14 0 -12 -138 4 -181
30 -84 116 -153 208 -165 114 -16 239 66 272 177 23 77 24 859 1 859 -13 0
-15 -54 -15 -422z"/>
<path d="M675 1150 c3 -5 8 -10 11 -10 2 0 4 5 4 10 0 6 -5 10 -11 10 -5 0 -7
-4 -4 -10z"/>
<path d="M786 1121 c-4 -5 -2 -12 3 -15 5 -4 12 -2 15 3 4 5 2 12 -3 15 -5 4
-12 2 -15 -3z"/>
<path d="M677 1103 c-11 -10 -8 -53 3 -53 6 0 10 14 10 30 0 31 -2 35 -13 23z"/>
<path d="M730 1080 c0 -5 5 -10 10 -10 6 0 10 5 10 10 0 6 -4 10 -10 10 -5 0
-10 -4 -10 -10z"/>
<path d="M784 1066 c-8 -21 -1 -49 14 -54 8 -2 12 7 12 27 0 33 -17 51 -26 27z"/>
<path d="M845 1040 c4 -6 11 -8 16 -5 14 9 11 15 -7 15 -8 0 -12 -5 -9 -10z"/>
<path d="M572 438 c-7 -7 -12 -43 -12 -90 0 -76 -4 -84 -34 -79 -12 3 -26 -21
-20 -31 9 -14 62 -9 78 8 12 12 16 37 16 110 0 93 -4 106 -28 82z"/>
<path d="M1437 443 c-4 -3 -7 -53 -7 -110 0 -85 3 -103 15 -103 12 0 15 19 15
110 0 101 -5 122 -23 103z"/>
<path d="M646 374 c-55 -55 -18 -144 59 -144 49 0 85 36 85 85 0 77 -89 114
-144 59z m92 -26 c28 -28 7 -78 -33 -78 -27 0 -45 18 -45 45 0 27 18 45 45 45
12 0 26 -5 33 -12z"/>
<path d="M810 331 c0 -88 10 -100 85 -98 l55 1 0 83 c0 64 -3 83 -14 83 -9 0
-15 -17 -18 -56 -3 -40 -10 -61 -23 -70 -30 -22 -45 0 -45 67 0 52 -2 59 -20
59 -18 0 -20 -7 -20 -69z"/>
<path d="M980 314 c0 -77 2 -84 20 -84 18 0 20 7 20 54 0 49 3 57 30 76 17 12
30 25 30 30 0 4 -22 8 -50 8 l-50 0 0 -84z"/>
<path d="M1090 315 c0 -78 2 -85 20 -85 17 0 20 7 20 49 0 64 7 81 35 81 28 0
35 -17 35 -81 0 -37 4 -49 15 -49 12 0 15 15 15 73 0 80 -9 97 -50 97 -14 0
-31 -5 -38 -12 -9 -9 -12 -9 -12 0 0 7 -9 12 -20 12 -18 0 -20 -7 -20 -85z"/>
<path d="M1276 384 c-22 -21 -20 -34 4 -34 11 0 20 5 20 11 0 14 52 7 57 -8 2
-6 -13 -14 -37 -18 -45 -8 -70 -27 -70 -55 0 -35 27 -49 90 -47 l60 1 0 67 c0
48 -5 72 -16 83 -20 21 -88 21 -108 0z m84 -87 c0 -31 -51 -50 -66 -25 -8 13
22 38 48 38 10 0 18 -6 18 -13z"/>
</g>
</svg>
