<?xml version="1.0" standalone="no"?>
<!DOCTYPE svg PUBLIC "-//W3C//DTD SVG 20010904//EN"
 "http://www.w3.org/TR/2001/REC-SVG-20010904/DTD/svg10.dtd">
<svg version="1.0" xmlns="http://www.w3.org/2000/svg"
 width="400.000000pt" height="400.000000pt" viewBox="0 0 400.000000 400.000000"
 preserveAspectRatio="xMidYMid meet">

<g transform="translate(0.000000,400.000000) scale(0.100000,-0.100000)"
fill="#000000" stroke="none">
<path d="M1905 2939 c-88 -110 -168 -215 -177 -232 -25 -47 -23 -100 6 -134
27 -32 44 -41 220 -109 294 -113 441 -215 502 -348 23 -51 26 -68 22 -130 -7
-96 -40 -160 -139 -260 -43 -44 -77 -81 -75 -83 1 -2 251 -2 555 -1 l552 3
-121 140 c-67 77 -158 183 -204 235 -45 52 -167 194 -271 315 -104 121 -201
234 -216 250 -14 17 -102 118 -195 226 -93 108 -191 222 -219 254 -27 32 -51
62 -53 66 -9 23 -39 -7 -187 -192z"/>
<path d="M1365 2628 c-143 -167 -272 -316 -286 -333 -15 -16 -111 -129 -215
-250 -104 -121 -221 -258 -261 -305 -40 -46 -73 -88 -73 -92 0 -4 200 -8 444
-8 493 0 510 2 680 66 100 37 215 98 251 132 82 78 122 157 109 216 -17 84
-81 146 -260 251 -174 103 -220 166 -191 265 21 73 94 159 176 209 14 9 15 7
-84 119 l-30 34 -260 -304z"/>
<path d="M37 1454 c-4 -4 -7 -79 -7 -166 l0 -159 28 3 27 3 5 115 5 115 75
-97 c41 -54 77 -98 82 -98 4 0 40 43 80 95 39 52 76 95 80 95 4 0 8 -52 8
-115 l0 -115 25 0 25 0 0 165 0 165 -23 0 c-18 0 -43 -26 -108 -109 -97 -127
-78 -128 -184 12 -65 85 -98 111 -118 91z"/>
<path d="M530 1295 l0 -165 165 0 c158 0 165 1 165 20 0 19 -7 20 -140 20
l-140 0 0 55 0 54 83 3 c65 2 82 6 82 18 0 12 -17 16 -82 18 l-83 3 0 49 0 50
140 0 c133 0 140 1 140 20 0 19 -7 20 -165 20 l-165 0 0 -165z"/>
<path d="M917 1453 c-4 -3 -7 -78 -7 -165 l0 -158 25 0 c24 0 25 2 25 65 l0
65 48 0 c43 0 53 -5 124 -66 66 -56 82 -65 110 -62 l33 3 -72 60 c-60 50 -68
60 -50 63 106 13 117 22 117 103 0 95 -7 99 -193 99 -85 0 -157 -3 -160 -7z
m291 -45 c16 -16 15 -83 -2 -97 -9 -8 -52 -11 -127 -9 l-114 3 -3 58 -3 57
119 0 c78 0 122 -4 130 -12z"/>
<path d="M1330 1295 l0 -165 25 0 25 0 0 165 0 165 -25 0 -25 0 0 -165z"/>
<path d="M1420 1440 c0 -18 7 -20 80 -20 l80 0 0 -145 0 -145 25 0 25 0 0 145
0 145 80 0 c73 0 80 2 80 20 0 19 -7 20 -185 20 -178 0 -185 -1 -185 -20z"/>
<path d="M1853 1454 c-10 -4 -13 -47 -13 -166 l0 -160 143 4 c154 4 186 13
226 64 17 21 21 41 21 94 0 83 -26 128 -83 147 -40 14 -274 27 -294 17z m278
-50 c38 -19 62 -77 56 -133 -10 -85 -77 -117 -232 -109 l-60 3 -3 119 c-1 66
-1 125 1 130 6 16 205 7 238 -10z"/>
<path d="M2288 1396 c-3 -33 -4 -106 -4 -161 1 -96 2 -100 24 -103 l22 -3 0
159 c0 149 -1 160 -19 165 -17 4 -20 -2 -23 -57z"/>
<path d="M2398 1342 c-1 -113 -1 -157 1 -194 1 -11 9 -18 21 -18 17 0 19 8 22
68 l3 67 41 3 c38 3 47 -2 124 -68 51 -43 93 -70 107 -70 38 0 33 7 -64 87
-24 20 -43 39 -43 44 0 5 24 9 53 9 28 0 58 4 65 9 31 19 26 152 -6 167 -9 4
-86 9 -169 10 l-153 3 -2 -117z m290 73 c9 -3 12 -21 10 -57 l-3 -53 -127 -3
-128 -3 0 59 c0 32 2 61 4 63 5 5 227 0 244 -6z"/>
<path d="M2818 1454 c-5 -4 -8 -79 -8 -166 l0 -159 165 1 c135 2 165 4 165 16
0 11 -25 14 -134 14 -142 0 -151 3 -154 50 -5 65 1 70 88 70 63 0 80 3 80 15
0 11 -18 15 -82 17 l-83 3 0 53 c0 28 5 52 10 53 6 0 62 0 125 -1 119 -1 150
4 150 24 0 13 -310 23 -322 10z"/>
<path d="M3220 1452 c-25 -9 -27 -18 -26 -163 1 -113 4 -142 16 -149 23 -15
313 -13 328 2 18 18 16 88 -3 88 -26 0 -30 -4 -30 -35 l0 -30 -130 0 -130 0
-3 128 -3 127 134 0 134 0 -4 -36 c-3 -32 -2 -35 19 -32 19 2 24 10 26 45 3
34 -1 44 -17 53 -21 11 -281 13 -311 2z"/>
<path d="M3585 1450 c-13 -22 9 -30 81 -30 64 0 74 -2 75 -17 0 -10 0 -75 -1
-145 l-1 -128 25 0 25 0 3 147 3 146 78 -2 c71 -2 78 -1 75 16 -3 16 -18 18
-180 21 -112 1 -179 -1 -183 -8z"/>
<path d="M1012 1053 c537 -2 1419 -2 1960 0 541 1 101 2 -977 2 -1078 0 -1520
-1 -983 -2z"/>
<path d="M40 887 c0 -45 4 -77 10 -77 6 0 10 16 10 35 l0 35 55 0 55 0 0 -35
c0 -19 5 -35 10 -35 6 0 10 30 10 70 0 68 -15 98 -22 43 -3 -26 -6 -28 -53
-28 -46 0 -50 2 -53 25 -2 14 -8 29 -13 35 -5 5 -9 -21 -9 -68z"/>
<path d="M377 953 c-11 -10 -8 -143 3 -143 6 0 10 32 10 75 0 75 -1 81 -13 68z"/>
<path d="M623 949 c-41 -12 -67 -50 -59 -84 18 -70 196 -74 196 -4 0 16 -7 19
-42 17 -37 -1 -39 -2 -10 -5 34 -5 40 -14 19 -31 -38 -32 -116 -20 -138 20
-14 25 12 65 46 74 26 7 68 2 98 -11 10 -4 17 -3 17 3 0 6 -17 16 -37 21 -44
12 -47 12 -90 0z"/>
<path d="M940 887 c0 -45 4 -77 10 -77 6 0 10 16 10 36 l0 35 53 -3 c51 -3 52
-4 55 -35 6 -61 22 -34 22 36 0 72 -16 107 -22 49 -3 -32 -4 -33 -53 -33 -46
0 -50 2 -53 25 -2 14 -8 29 -13 35 -5 5 -9 -21 -9 -68z"/>
<path d="M1274 951 c-2 -2 -4 -35 -4 -73 l0 -68 58 2 57 1 -45 6 c-40 5 -45 9
-48 34 -3 26 -1 27 39 27 49 0 45 14 -4 14 -25 1 -33 6 -35 23 -3 20 2 22 45
25 l48 3 -53 5 c-30 3 -56 3 -58 1z"/>
<path d="M2110 949 c-63 -25 -78 -72 -35 -114 48 -48 175 -26 175 30 0 11 -11
15 -42 13 -38 -1 -39 -2 -10 -5 39 -5 38 -22 -2 -41 -38 -19 -92 -7 -112 23
-20 30 -11 58 22 73 31 15 91 16 99 2 8 -13 35 -13 35 0 0 9 -63 30 -90 29 -8
0 -26 -5 -40 -10z"/>
<path d="M2763 949 c-35 -10 -63 -42 -63 -72 0 -10 11 -29 25 -42 20 -20 34
-25 78 -25 66 0 107 26 107 68 0 37 -10 49 -53 67 -41 17 -48 17 -94 4z m105
-29 c29 -28 28 -54 -4 -79 -33 -26 -70 -27 -111 -1 -40 24 -42 51 -7 79 35 28
93 28 122 1z"/>
<path d="M3086 953 c-3 -3 -6 -30 -6 -58 0 -64 19 -85 78 -85 56 0 72 19 72
85 0 30 -4 57 -10 60 -6 4 -10 -15 -10 -49 0 -60 -16 -86 -54 -86 -34 0 -46
19 -46 76 0 50 -9 72 -24 57z"/>
<path d="M3577 953 c-4 -3 -7 -28 -7 -55 0 -26 -2 -48 -5 -48 -2 0 -35 23 -73
50 -38 28 -72 50 -75 50 -4 0 -7 -31 -7 -70 0 -40 4 -70 10 -70 6 0 10 23 10
50 0 28 5 50 10 50 6 0 41 -22 77 -50 36 -27 69 -50 72 -50 8 0 7 137 0 144
-3 4 -9 3 -12 -1z"/>
<path d="M3780 883 l0 -73 40 0 c90 0 136 56 91 111 -13 17 -33 24 -75 29
l-56 6 0 -73z m90 47 c51 -27 45 -79 -11 -99 -56 -19 -59 -16 -59 49 0 58 1
60 26 60 14 0 34 -5 44 -10z"/>
<path d="M1550 880 c0 -53 3 -71 13 -67 6 2 13 12 13 23 1 10 2 23 3 28 1 6
17 -5 36 -24 39 -38 61 -34 25 5 l-23 24 24 20 c36 29 16 55 -45 59 l-46 3 0
-71z m78 48 c15 -15 -3 -38 -29 -38 -14 0 -19 7 -19 25 0 27 26 35 48 13z"/>
<path d="M2420 881 c0 -58 3 -71 16 -71 10 0 15 8 14 23 -4 40 0 41 35 7 39
-38 61 -34 25 5 l-23 24 24 20 c36 29 16 55 -45 59 l-46 3 0 -70z m78 47 c15
-15 -3 -38 -29 -38 -14 0 -19 7 -19 25 0 27 26 35 48 13z"/>
</g>
</svg>
