<?xml version="1.0" standalone="no"?>
<!DOCTYPE svg PUBLIC "-//W3C//DTD SVG 20010904//EN"
 "http://www.w3.org/TR/2001/REC-SVG-20010904/DTD/svg10.dtd">
<svg version="1.0" xmlns="http://www.w3.org/2000/svg"
 width="600.000000pt" height="600.000000pt" viewBox="0 0 600.000000 600.000000"
 preserveAspectRatio="xMidYMid meet">

<g transform="translate(0.000000,600.000000) scale(0.100000,-0.100000)"
fill="#000000" stroke="none">
<path d="M2805 4605 c-96 -26 -241 -79 -262 -97 -10 -8 -13 -69 -13 -259 0
-137 3 -249 8 -249 4 0 115 108 247 240 132 132 246 240 254 240 8 0 124 -109
258 -242 l243 -242 0 257 0 258 -44 18 c-69 30 -257 89 -307 96 -30 4 -64 1
-101 -10 -50 -14 -60 -14 -99 -1 -58 21 -77 20 -184 -9z"/>
<path d="M2963 4288 c-85 -88 -93 -102 -93 -168 0 -66 14 -90 99 -175 l71 -69
45 44 45 44 -62 63 c-66 67 -79 106 -44 141 16 16 23 11 116 -84 55 -55 100
-109 100 -119 0 -22 -180 -205 -201 -205 -8 0 -65 51 -126 113 -89 90 -113
121 -124 157 -7 25 -15 48 -19 52 -3 4 -50 -37 -104 -91 l-98 -99 33 -48 c44
-64 117 -135 192 -186 68 -47 224 -128 244 -128 22 0 173 79 248 130 76 52
157 131 199 195 l26 40 -232 232 c-128 128 -235 233 -238 233 -3 0 -38 -33
-77 -72z"/>
<path d="M3370 3633 c0 -7 7 -13 15 -13 8 0 15 6 15 13 0 8 -7 14 -15 14 -8 0
-15 -6 -15 -14z"/>
<path d="M2495 3215 c-25 -24 -25 -26 -25 -210 0 -182 0 -186 24 -210 15 -14
41 -26 71 -30 63 -10 235 -1 262 13 31 17 43 63 43 163 l0 89 -105 0 -105 0 0
-45 0 -45 50 0 50 0 0 -40 c0 -47 -12 -53 -110 -48 l-65 3 -3 148 -3 147 91 0
90 0 0 -36 0 -35 53 3 c50 3 52 4 55 33 6 47 -15 100 -43 113 -16 7 -81 12
-166 12 -135 0 -141 -1 -164 -25z"/>
<path d="M2970 3000 l0 -240 168 2 167 3 3 43 3 42 -115 0 -116 0 0 195 0 195
-55 0 -55 0 0 -240z"/>
<path d="M3405 3215 c-25 -24 -25 -26 -25 -210 0 -182 0 -186 24 -210 14 -14
41 -26 71 -30 64 -10 245 -1 271 13 35 19 44 65 44 227 0 158 -9 208 -40 225
-10 6 -87 10 -170 10 -147 0 -152 -1 -175 -25z m275 -210 c0 -168 7 -158 -115
-153 l-70 3 -3 148 -3 147 96 0 95 0 0 -145z"/>
<path d="M3900 2999 l0 -241 163 4 c102 2 170 8 184 16 49 27 59 177 14 213
l-22 18 21 21 c16 16 20 33 20 90 0 62 -3 74 -25 95 -24 25 -27 25 -190 25
l-165 0 0 -241z m268 104 l-3 -48 -82 -3 -83 -3 0 51 0 50 86 0 85 0 -3 -47z
m7 -193 l0 -55 -85 0 -85 0 -3 44 c-5 71 -3 72 90 69 l83 -3 0 -55z"/>
<path d="M4426 3013 c-42 -126 -76 -234 -76 -240 0 -9 17 -13 53 -13 l53 0 18
55 17 56 91 -3 91 -3 17 -50 17 -50 56 -3 c42 -2 57 1 57 10 0 7 -35 115 -77
240 l-78 228 -81 0 -82 0 -76 -227z m213 -40 c1 -9 -17 -13 -60 -13 -51 0 -60
3 -55 15 3 9 15 48 27 88 12 40 24 77 28 82 5 9 58 -143 60 -172z"/>
<path d="M4902 3003 l3 -238 168 -3 167 -2 0 44 0 45 -112 3 -113 3 -3 193 -2
192 -55 0 -55 0 2 -237z"/>
<path d="M2365 1281 c-48 -22 -79 -54 -100 -103 -20 -49 -19 -74 5 -126 29
-64 130 -182 155 -182 23 0 45 17 45 36 0 7 -25 43 -55 79 -48 59 -55 73 -55
111 0 50 38 103 90 124 42 17 125 8 161 -19 42 -31 36 -8 -10 38 -61 61 -157
78 -236 42z"/>
<path d="M2778 1214 c-51 -21 -75 -72 -59 -125 13 -44 35 -58 126 -84 79 -22
105 -40 105 -70 0 -32 -35 -55 -86 -55 -44 0 -94 30 -94 56 0 9 -11 14 -30 14
-25 0 -30 -4 -30 -24 0 -32 36 -75 76 -92 69 -29 177 -7 208 41 9 14 16 45 16
70 0 62 -26 87 -115 110 -89 23 -115 39 -115 70 0 30 26 45 79 45 33 0 44 -5
63 -30 15 -21 30 -30 50 -30 32 0 34 9 12 55 -27 59 -126 82 -206 49z"/>
<path d="M3115 1216 c-40 -18 -63 -45 -71 -84 -6 -31 -5 -32 25 -32 19 0 31 5
31 13 0 8 10 23 23 35 47 44 147 19 147 -37 0 -22 -35 -51 -62 -51 -45 0 -122
-24 -148 -47 -26 -22 -30 -31 -30 -77 0 -30 6 -61 15 -73 33 -47 136 -55 193
-14 l30 21 16 -25 c26 -39 86 -31 86 11 0 17 -6 24 -20 24 -19 0 -20 7 -20
135 0 79 -5 144 -11 159 -23 50 -134 73 -204 42z m150 -273 c-13 -51 -117 -82
-157 -46 -41 37 -9 97 59 108 21 3 52 9 68 13 28 7 30 6 33 -21 2 -17 1 -41
-3 -54z"/>
<path d="M3434 1216 c-42 -19 -64 -52 -64 -99 0 -57 37 -89 129 -112 72 -17
111 -41 111 -68 0 -28 -27 -49 -71 -54 -56 -6 -97 10 -109 42 -7 19 -17 25
-40 25 -34 0 -36 -8 -13 -57 40 -85 203 -98 267 -22 36 43 35 98 -1 139 -21
21 -48 35 -101 49 -68 17 -112 42 -112 63 0 4 9 17 20 28 36 36 140 17 140
-26 0 -9 11 -14 30 -14 25 0 30 4 30 23 0 75 -124 123 -216 83z"/>
<path d="M2434 1116 c-5 -19 6 -38 50 -92 48 -59 56 -74 56 -110 0 -47 -31
-94 -81 -119 -45 -24 -120 -19 -163 10 -42 29 -45 24 -11 -21 77 -101 245 -97
329 9 25 31 30 47 30 91 0 60 -17 95 -97 192 -41 50 -58 64 -79 64 -21 0 -29
-6 -34 -24z"/>
<path d="M2664 842 c0 -24 31 -26 33 -1 1 12 -5 19 -15 19 -10 0 -18 -8 -18
-18z"/>
<path d="M3654 842 c0 -24 31 -26 33 -1 1 12 -5 19 -15 19 -10 0 -18 -8 -18
-18z"/>
</g>
</svg>
